<?xml version="1.0" encoding="UTF-8"?>
<svg id="Layer_1" xmlns="http://www.w3.org/2000/svg" version="1.1" viewBox="0 0 464 502.33">
  <!-- Generator: Adobe Illustrator 29.5.1, SVG Export Plug-In . SVG Version: 2.1.0 Build 141)  -->
  <defs>
    <style>
      .st0 {
        fill: #12294c;
      }

      .st1 {
        fill: #a91f24;
      }

      .st2 {
        display: none;
      }
    </style>
  </defs>
  <g class="st2">
    <g>
      <g>
        <path class="st0" d="M126.8,277.65c-.95-.79-2.05-1.35-3.3-1.67s-2.59-.48-4.01-.48c-.6,0-1.2.07-1.78.21-.58.14-1.12.33-1.59.57-.48.24-.86.52-1.16.86-.3.33-.45.67-.45,1.02,0,.38.05.72.17,1.02.11.3.35.56.71.76.36.21.9.37,1.61.5s1.67.19,2.87.19c2.6,0,4.7.21,6.3.62,1.6.41,2.83.97,3.68,1.67s1.42,1.51,1.71,2.43c.28.92.43,1.88.43,2.86,0,1.49-.32,2.79-.95,3.88-.64,1.1-1.52,2-2.64,2.72-1.13.71-2.45,1.26-3.98,1.62-1.52.36-3.16.55-4.91.55-2.19,0-4.26-.47-6.22-1.4-1.95-.94-3.61-2.22-4.98-3.84l3.53-3.57c.38.38.79.81,1.21,1.29.43.48.94.92,1.52,1.33.59.41,1.28.75,2.07,1.02s1.75.41,2.86.41c2.29,0,4.13-.33,5.53-1s2.1-1.67,2.1-3c0-1.11-.63-1.84-1.88-2.19-1.26-.35-3.17-.52-5.74-.52-1.49,0-2.86-.13-4.1-.38-1.24-.25-2.31-.67-3.22-1.26s-1.61-1.35-2.12-2.29-.76-2.07-.76-3.41c0-1.11.28-2.13.83-3.05.56-.92,1.29-1.71,2.22-2.36.92-.65,2-1.15,3.24-1.5s2.54-.52,3.91-.52c1.81,0,3.57.21,5.29.62s3.48,1.24,5.29,2.48l-3.29,3.81h0Z"/>
        <path class="st0" d="M151.77,297c-1.72,0-3.3-.21-4.74-.62-1.45-.41-2.7-1.04-3.76-1.88s-1.89-1.92-2.48-3.24c-.59-1.32-.88-2.88-.88-4.69v-15.01h4.91v15.01c0,1.05.17,1.92.5,2.62.33.7.81,1.26,1.43,1.69s1.36.73,2.22.91c.86.18,1.81.26,2.86.26s2-.09,2.86-.26,1.6-.48,2.22-.91,1.1-.99,1.43-1.69.5-1.57.5-2.62v-15.01h4.91v15.01c0,1.81-.29,3.38-.88,4.69-.59,1.32-1.41,2.4-2.48,3.24-1.06.84-2.32,1.47-3.76,1.88-1.45.41-3.03.62-4.74.62h-.12Z"/>
        <path class="st0" d="M174.68,296.24v-24.68h15.68c1.17,0,2.26.18,3.26.55s1.85.89,2.55,1.57c.7.68,1.25,1.51,1.64,2.48.4.97.6,2.04.6,3.22,0,2.48-.79,4.42-2.36,5.84-1.57,1.41-3.76,2.12-6.55,2.12h-2.19c-1.14,0-2.09.02-2.84.07-.75.05-1.4.12-1.95.21-.56.09-1.06.24-1.5.43-.45.19-.94.43-1.48.72v7.48h-4.86ZM179.54,283.85c1.08-.63,2.29-1.03,3.62-1.19s2.72-.24,4.15-.24h2.19c1.17,0,2.12-.18,2.84-.55.71-.36,1.07-1.22,1.07-2.55,0-.6-.11-1.1-.33-1.48s-.52-.67-.88-.88c-.37-.21-.78-.34-1.24-.41-.46-.06-.95-.09-1.45-.09h-9.96v7.38h-.01Z"/>
        <path class="st0" d="M210.94,291.28h15.49v4.96h-20.35v-24.68h19.44v4.91h-14.58v6c1.08-.63,2.28-1.03,3.6-1.19,1.32-.16,2.69-.24,4.12-.24h3.62v4.91h-3.62c-1.14,0-2.09.03-2.84.07-.75.05-1.39.12-1.93.21s-1.03.24-1.48.43c-.45.19-.94.43-1.48.72v3.91h.01Z"/>
        <path class="st0" d="M255.26,288.8c.29.51.6.91.95,1.2.35.29.71.5,1.1.64s.75.24,1.12.29c.36.05.69.07.98.07h1.72v5.24h-2.14c-.64,0-1.26-.03-1.88-.09s-1.23-.22-1.83-.48c-.6-.25-1.19-.64-1.76-1.17-.57-.52-1.14-1.25-1.72-2.17l-3.81-6.19h-.33c-.95,0-1.76.02-2.41.07-.65.05-1.22.14-1.72.26-.49.13-.95.28-1.38.45-.43.18-.9.39-1.41.64v8.67h-5v-24.68h15.91c1.14,0,2.18.18,3.12.55s1.76.88,2.45,1.55c.7.67,1.24,1.46,1.62,2.36.38.91.57,1.9.57,2.99,0,1.91-.49,3.46-1.48,4.63-.99,1.18-2.38,2.04-4.19,2.58l1.52,2.58h0ZM251.64,281.23c.73,0,1.37-.2,1.93-.6s.83-.99.83-1.79c0-.54-.11-.97-.33-1.29-.22-.32-.5-.56-.83-.72s-.72-.26-1.17-.31-.87-.07-1.29-.07h-10.05v6.19c.95-.54,2.01-.91,3.17-1.12s2.41-.31,3.74-.31h4v.02Z"/>
        <path class="st0" d="M275.51,296.24h-4.86v-24.68h18.49v4.91h-13.63v6c1.08-.63,2.28-1.03,3.6-1.19,1.32-.16,2.69-.24,4.12-.24h2.67v4.91h-2.67c-1.14,0-2.09.03-2.84.07-.75.05-1.39.12-1.93.21s-1.03.24-1.48.43c-.45.19-.94.43-1.48.72v8.86h.01Z"/>
        <path class="st0" d="M324.59,283.66c0,2.1-.41,3.97-1.24,5.62s-1.92,3.05-3.27,4.19c-1.35,1.14-2.91,2.02-4.68,2.62s-3.59.91-5.46.91-3.69-.29-5.44-.88-3.3-1.45-4.65-2.57c-1.35-1.13-2.43-2.51-3.24-4.15-.81-1.64-1.22-3.5-1.22-5.6s.41-3.95,1.24-5.57,1.92-2.99,3.29-4.1c1.37-1.11,2.93-1.95,4.68-2.53,1.75-.57,3.55-.86,5.39-.86s3.65.27,5.42.81,3.32,1.35,4.68,2.43c1.35,1.08,2.44,2.43,3.27,4.05s1.24,3.5,1.24,5.62h0ZM319.39,283.7c0-1.37-.27-2.55-.81-3.55s-1.25-1.83-2.14-2.48c-.89-.65-1.89-1.13-3.02-1.43-1.12-.3-2.27-.45-3.45-.45s-2.37.16-3.49.48-2.12.81-2.99,1.48-1.58,1.51-2.12,2.53-.81,2.22-.81,3.62.27,2.6.81,3.62,1.25,1.86,2.14,2.53,1.89,1.16,3.02,1.48c1.12.32,2.29.48,3.49.48s2.31-.18,3.42-.55,2.11-.9,2.99-1.6c.89-.7,1.6-1.56,2.14-2.6.54-1.03.81-2.21.81-3.55h.01Z"/>
        <path class="st0" d="M360.42,283.66c0,2.1-.41,3.97-1.24,5.62s-1.92,3.05-3.27,4.19c-1.35,1.14-2.91,2.02-4.68,2.62s-3.59.91-5.46.91-3.69-.29-5.44-.88-3.3-1.45-4.65-2.57c-1.35-1.13-2.43-2.51-3.24-4.15-.81-1.64-1.22-3.5-1.22-5.6s.41-3.95,1.24-5.57,1.92-2.99,3.29-4.1c1.37-1.11,2.93-1.95,4.68-2.53,1.75-.57,3.55-.86,5.39-.86s3.65.27,5.42.81,3.32,1.35,4.68,2.43c1.35,1.08,2.44,2.43,3.27,4.05s1.24,3.5,1.24,5.62h0ZM355.22,283.7c0-1.37-.27-2.55-.81-3.55s-1.25-1.83-2.14-2.48c-.89-.65-1.89-1.13-3.02-1.43-1.12-.3-2.27-.45-3.45-.45s-2.37.16-3.49.48-2.12.81-2.99,1.48-1.58,1.51-2.12,2.53-.81,2.22-.81,3.62.27,2.6.81,3.62,1.25,1.86,2.14,2.53,1.89,1.16,3.02,1.48c1.12.32,2.29.48,3.49.48s2.31-.18,3.42-.55,2.11-.9,2.99-1.6c.89-.7,1.6-1.56,2.14-2.6.54-1.03.81-2.21.81-3.55h.01Z"/>
        <path class="st0" d="M366.33,271.55h15.3c1.84,0,3.53.26,5.07.79,1.54.52,2.86,1.3,3.95,2.33,1.1,1.03,1.95,2.3,2.55,3.81s.91,3.25.91,5.22-.29,3.64-.88,5.19c-.59,1.56-1.43,2.87-2.53,3.95-1.1,1.08-2.41,1.91-3.96,2.5-1.54.59-3.25.88-5.12.88h-10.05v-19.77h-3.05l-2.19-4.91h0ZM376.76,276.46v14.82h4.89c2.37,0,4.21-.65,5.51-1.95,1.3-1.3,1.95-3.14,1.95-5.53s-.65-4.24-1.95-5.48c-1.3-1.24-3.13-1.86-5.51-1.86h-4.89Z"/>
        <path class="st0" d="M418.79,277.65c-.95-.79-2.05-1.35-3.3-1.67s-2.59-.48-4.01-.48c-.6,0-1.2.07-1.78.21-.58.14-1.12.33-1.59.57-.48.24-.86.52-1.16.86-.3.33-.45.67-.45,1.02,0,.38.05.72.17,1.02.11.3.35.56.71.76.36.21.9.37,1.61.5.71.13,1.67.19,2.87.19,2.6,0,4.7.21,6.3.62s2.83.97,3.68,1.67,1.42,1.51,1.71,2.43c.28.92.43,1.88.43,2.86,0,1.49-.32,2.79-.95,3.88-.64,1.1-1.52,2-2.64,2.72-1.13.71-2.45,1.26-3.98,1.62-1.52.36-3.16.55-4.91.55-2.19,0-4.26-.47-6.22-1.4-1.95-.94-3.61-2.22-4.98-3.84l3.53-3.57c.38.38.79.81,1.21,1.29.43.48.94.92,1.52,1.33.59.41,1.28.75,2.07,1.02s1.75.41,2.86.41c2.29,0,4.13-.33,5.53-1s2.1-1.67,2.1-3c0-1.11-.63-1.84-1.88-2.19-1.26-.35-3.17-.52-5.74-.52-1.49,0-2.86-.13-4.1-.38s-2.31-.67-3.22-1.26-1.61-1.35-2.12-2.29-.76-2.07-.76-3.41c0-1.11.28-2.13.83-3.05.56-.92,1.29-1.71,2.22-2.36.92-.65,2-1.15,3.24-1.5s2.54-.52,3.91-.52c1.81,0,3.57.21,5.29.62s3.48,1.24,5.29,2.48l-3.29,3.81h0Z"/>
        <path class="st0" d="M445.47,296.24v-24.68h4.86v24.68h-4.86Z"/>
        <path class="st0" d="M464.81,271.55l14.91,17.15v-17.15h4.91v24.68h-4.91l-13.72-16.06v16.06h-4.91v-21.01l-2.43-3.67h6.15,0Z"/>
        <path class="st0" d="M492.97,271.55h15.3c1.84,0,3.53.26,5.07.79,1.54.52,2.86,1.3,3.95,2.33,1.1,1.03,1.95,2.3,2.55,3.81s.91,3.25.91,5.22-.29,3.64-.88,5.19c-.59,1.56-1.43,2.87-2.53,3.95-1.1,1.08-2.41,1.91-3.96,2.5-1.54.59-3.25.88-5.12.88h-10.05v-19.77h-3.05l-2.19-4.91h0ZM503.41,276.46v14.82h4.89c2.37,0,4.21-.65,5.51-1.95,1.3-1.3,1.95-3.14,1.95-5.53s-.65-4.24-1.95-5.48c-1.3-1.24-3.13-1.86-5.51-1.86h-4.89Z"/>
        <path class="st0" d="M529.81,296.24v-24.68h4.86v24.68h-4.86Z"/>
        <path class="st0" d="M550.63,270.98h5.29l13.34,25.25h-5.38l-1.95-3.72h-2.95c-1.52,0-3.03.13-4.53.38-1.49.25-2.85.57-4.07.93-1.22.36-2.26.75-3.1,1.14-.84.4-1.36.72-1.55.98l-.14.29h-5.15l11.82-22.16-1.62-3.1h0ZM559.59,288.04l-4.81-9.15-5.86,11.29c.79-.41,2.02-.87,3.67-1.38,1.65-.51,3.76-.76,6.34-.76h.67-.01Z"/>
        <path class="st0" d="M589.79,296.24v-24.68h15.68c1.17,0,2.26.18,3.26.55s1.85.89,2.55,1.57,1.25,1.51,1.64,2.48c.4.97.6,2.04.6,3.22,0,2.48-.79,4.42-2.36,5.84-1.57,1.41-3.76,2.12-6.55,2.12h-2.19c-1.14,0-2.09.02-2.84.07-.75.05-1.4.12-1.95.21-.56.09-1.06.24-1.5.43-.45.19-.94.43-1.48.72v7.48h-4.86ZM594.65,283.85c1.08-.63,2.29-1.03,3.62-1.19s2.72-.24,4.15-.24h2.19c1.17,0,2.12-.18,2.84-.55.71-.36,1.07-1.22,1.07-2.55,0-.6-.11-1.1-.33-1.48-.22-.38-.52-.67-.88-.88-.37-.21-.78-.34-1.24-.41-.46-.06-.95-.09-1.45-.09h-9.96v7.38h-.01Z"/>
        <path class="st0" d="M634.44,296.24h-6.34l-10.72-24.68h5.53l8.34,19.68,8.53-19.68h5.57l-10.91,24.68h0Z"/>
        <path class="st0" d="M663.03,276.46v19.77h-4.91v-19.77h-8.96v-4.91h23.16v4.91h-9.29Z"/>
        <path class="st0" d="M692.86,296.24v-24.68h5.1v19.73h13.1v4.96h-18.2,0Z"/>
        <path class="st0" d="M726.88,276.46v19.77h-4.91v-19.77h-8.96v-4.91h23.16v4.91h-9.29,0Z"/>
        <path class="st0" d="M740.7,271.55h15.3c1.84,0,3.53.26,5.07.79,1.54.52,2.86,1.3,3.96,2.33s1.94,2.3,2.55,3.81c.6,1.51.91,3.25.91,5.22s-.29,3.64-.88,5.19c-.59,1.56-1.43,2.87-2.52,3.95-1.1,1.08-2.42,1.91-3.95,2.5-1.54.59-3.25.88-5.12.88h-10.05v-19.77h-3.05l-2.19-4.91h-.03ZM751.13,276.46v14.82h4.89c2.37,0,4.21-.65,5.51-1.95,1.3-1.3,1.95-3.14,1.95-5.53s-.65-4.24-1.95-5.48c-1.3-1.24-3.13-1.86-5.51-1.86h-4.89Z"/>
      </g>
      <g>
        <path class="st0" d="M66.26,144.31h17.94l45.25,85.66h-18.26l-6.63-12.61h-10.02c-5.17,0-10.29.43-15.35,1.29-5.07.86-9.67,1.91-13.82,3.15-4.15,1.24-7.65,2.53-10.51,3.88-2.86,1.35-4.61,2.45-5.25,3.31l-.48.97h-17.45l40.08-75.15-5.5-10.51h0ZM96.64,202.17l-16.32-31.03-19.88,38.31c2.69-1.4,6.84-2.96,12.44-4.69,5.6-1.72,12.77-2.59,21.5-2.59h2.26Z"/>
        <path class="st0" d="M224.65,220.6c-4.63,3.99-9.91,6.98-15.84,8.97-5.93,1.99-12.12,2.99-18.59,2.99s-12.5-1-18.42-2.99c-5.93-1.99-11.18-4.9-15.76-8.73-4.58-3.82-8.24-8.51-10.99-14.06s-4.12-11.88-4.12-18.99,1.4-13.42,4.2-18.91c2.8-5.5,6.52-10.13,11.15-13.9,4.63-3.77,9.91-6.63,15.84-8.57,5.92-1.94,12.01-2.91,18.26-2.91s12.12.89,17.94,2.67,11.04,4.39,15.68,7.84l-11.15,12.93c-3.13-2.15-6.65-3.8-10.59-4.93-3.93-1.13-7.89-1.7-11.88-1.7s-8.03.57-11.8,1.7c-3.77,1.13-7.17,2.83-10.18,5.09-3.02,2.26-5.41,5.15-7.19,8.65s-2.67,7.62-2.67,12.36.91,8.84,2.75,12.28c1.83,3.45,4.26,6.3,7.27,8.57,3.02,2.26,6.44,3.96,10.26,5.09,3.82,1.13,7.73,1.7,11.72,1.7,6.25,0,12.12-1.45,17.62-4.36v-13.41h-8.57l-7.11-15.68h32.16v38.3h.01Z"/>
        <path class="st0" d="M277.82,144.31h17.94l45.25,85.66h-18.26l-6.63-12.61h-10.02c-5.17,0-10.29.43-15.35,1.29-5.07.86-9.67,1.91-13.82,3.15-4.15,1.24-7.65,2.53-10.51,3.88s-4.61,2.45-5.25,3.31l-.48.97h-17.45l40.08-75.15-5.5-10.51h0ZM308.21,202.17l-16.32-31.03-19.88,38.31c2.69-1.4,6.84-2.96,12.44-4.69,5.6-1.72,12.77-2.59,21.5-2.59h2.26Z"/>
        <path class="st0" d="M419.89,166.94c-3.22-2.69-6.95-4.58-11.19-5.66s-8.78-1.62-13.6-1.62c-2.04,0-4.05.24-6.04.73-1.99.48-3.78,1.13-5.39,1.94s-2.92,1.78-3.94,2.91-1.53,2.29-1.53,3.48c0,1.29.19,2.45.56,3.47.38,1.02,1.18,1.89,2.42,2.59s3.06,1.27,5.48,1.7,5.67.65,9.75.65c8.81,0,15.93.7,21.36,2.1,5.43,1.4,9.59,3.29,12.49,5.66,2.9,2.37,4.83,5.12,5.8,8.24.97,3.13,1.45,6.36,1.45,9.7,0,5.07-1.08,9.45-3.23,13.17-2.16,3.72-5.15,6.79-8.97,9.21-3.83,2.42-8.32,4.26-13.5,5.5-5.17,1.24-10.72,1.86-16.65,1.86-7.43,0-14.46-1.59-21.09-4.77-6.63-3.18-12.26-7.52-16.89-13.01l11.96-12.12c1.29,1.29,2.67,2.75,4.12,4.36,1.45,1.62,3.18,3.13,5.17,4.53s4.34,2.56,7.03,3.47c2.69.92,5.92,1.37,9.7,1.37,7.76,0,14.01-1.13,18.75-3.39s7.11-5.66,7.11-10.18c0-3.77-2.13-6.25-6.38-7.44-4.26-1.18-10.75-1.78-19.48-1.78-5.07,0-9.7-.43-13.9-1.29s-7.84-2.29-10.91-4.28c-3.07-1.99-5.47-4.58-7.19-7.76-1.72-3.18-2.59-7.03-2.59-11.56,0-3.77.94-7.22,2.83-10.34,1.88-3.12,4.39-5.79,7.52-8,3.12-2.21,6.79-3.9,10.99-5.09,4.2-1.18,8.62-1.78,13.25-1.78,6.14,0,12.12.7,17.94,2.1,5.82,1.4,11.8,4.2,17.94,8.4l-11.15,12.93h0Z"/>
        <path class="st0" d="M500.7,162.9v67.07h-16.65v-67.07h-30.39v-16.65h78.55v16.65h-31.52.01Z"/>
        <path class="st0" d="M574.56,229.97h-16.49v-83.72h16.49v33.45c2.8-1.4,6.09-2.1,9.86-2.1,3.45,0,7.46.4,12.04,1.21,4.58.81,8.97,1.21,13.17,1.21,1.83,0,3.61-.13,5.33-.4,1.72-.27,3.45-.83,5.17-1.7v-31.68h16.49v83.72h-16.49v-35.07c-1.62.86-3.23,1.43-4.85,1.7s-3.29.4-5.01.4c-4.53,0-8.84-.38-12.93-1.13-4.1-.75-8.19-1.13-12.28-1.13-1.83,0-3.61.14-5.33.4-1.73.27-3.45.78-5.17,1.53v33.31Z"/>
        <path class="st0" d="M713.39,196.19v33.78h-16.48v-33.78l-35.23-49.94h21.01l22.3,32.97,22.95-32.97h20.04l-34.59,49.94h0Z"/>
        <path class="st0" d="M781.92,144.31h17.94l45.25,85.66h-18.26l-6.63-12.61h-10.02c-5.17,0-10.29.43-15.36,1.29s-9.67,1.91-13.82,3.15c-4.15,1.24-7.65,2.53-10.51,3.88s-4.61,2.45-5.25,3.31l-.48.97h-17.46l40.08-75.15-5.5-10.51h.02ZM812.31,202.17l-16.32-31.03-19.88,38.31c2.69-1.4,6.84-2.96,12.45-4.69,5.6-1.72,12.77-2.59,21.49-2.59h2.26Z"/>
      </g>
    </g>
    <g>
      <path class="st1" d="M-96.53,198.78c-6.7-.76-13.35-.56-19.92,1.17-4.95,1.3-9.46,3.52-13.64,6.8-.37-.91-.21-1.56-.16-2.21.63-7.12.59-14.22-.82-21.25-4.47-22.31-17.63-37.53-38.24-46.59-2.58-1.13-4.25-.37-5.4,2.18-2.09,4.62-3.88,9.35-5.18,14.25-5.2,19.74-2.56,38.1,9.65,54.78.3.42.71.83.62,1.57-2.4-.2-4.8-.13-7.19.05-1.39.1-2.62.55-3.34,1.83-.71,1.25-.71,2.56.12,3.76.92,1.35,2.26,1.64,3.82,1.48,5.51-.55,10.94-.14,15.71,2.89,4.21,2.67,8.15,5.78,12.19,8.71.07.05.04.22.08.41-5.1,1.58-10.34,2.32-15.67,2.21-14.77-.31-27.49-5.98-38.88-15.06-.84-.67-.87-1.23-.37-2.14,3.52-6.46,8.68-11,15.56-13.63,2.44-.93,3.36-2.91,2.49-5.01-.76-1.82-2.83-2.49-5.09-1.62-9.82,3.76-16.65,10.61-20.77,20.21-1.15,2.68-.8,3.98,1.44,5.86,6.68,5.62,13.92,10.37,22.07,13.6,14.62,5.78,29.44,6.57,44.33,1.3,3.1-1.1,5.96-1.21,9.12-.83,8.56,1.06,16.74-.24,24.08-5.05,8.85-5.8,14-14.25,16.89-24.23.94-3.25-.18-5.07-3.52-5.45h.02ZM-139.74,217.2c-1.92-5.06-3.66-9.66-5.4-14.27-1.3-3.44-2.71-6.84-3.83-10.33-.8-2.5-3.03-3.28-4.95-2.56-1.94.73-2.62,2.77-1.71,5.19,2.98,7.96,5.98,15.91,8.97,23.86.14.38.26.77.38,1.14-.38.34-.64.08-.85-.07-10.19-7.07-18.48-15.81-23.62-27.25-4.98-11.07-5.61-22.56-3.11-34.33.91-4.31,2.29-8.48,3.84-12.6.48-1.28,1.06-1.52,2.25-.86,17.86,9.85,28.64,24.52,30.6,45.11.84,8.86-.34,20.36-2.57,26.96h0ZM-101.36,206.71c-5.03,12.03-14.01,20.01-28.39,20.07-.64-.05-1.78-.13-2.92-.25-2.17-.22-2.22-.25-1.39-2.35,3.99-10.11,11.55-15.86,22.06-17.95,3.2-.64,6.45-.8,9.71-.74.92.02,1.36.16.92,1.22h0Z"/>
      <path class="st1" d="M-117.69,282.87c.37-.06.73-.11,1.1-.17,6.97-.66,13.59-2.54,19.9-5.58.24-.11.49-.23.73-.34,3.33-1.46,6.54-3.15,9.42-5.41.4-.06.69-.28.89-.62,1.14-.6,2.17-1.35,3.08-2.27h0c4.4-3.21,8.27-6.98,11.74-11.17.08-.1.16-.2.24-.3.13-.16.27-.32.4-.49v.08c.89-.97,1.79-1.93,2.69-2.9-.15.09-.18.07-.1-.06.03.04.05.08.08.12-1.6-.19-2.66.91-3.89,1.63l.03-.02c-6.35,3.06-12.84,5.78-19.51,8.08-.29-.03-.57-.01-.76.25-.6.04-1.19.14-1.7.47-5.95,1.54-11.93,2.9-18.05,3.64-16.73,2.03-33.07.32-49.11-4.75-12.86-4.06-24.74-10.1-35.97-17.51-.4-.27-.82-.51-1.2-.81-.95-.74-1.64-1.03-2.09.56-.41,1.45-1.75,1.98-3.12,2.04-1.42.07-2.62-.58-3.18-1.96-1.4-3.41-2.37-6.95-3.01-10.58-.26-1.46.49-2.6,1.75-3.3,1.33-.73,2.67-.61,3.91.29,3.12,2.27,6.18,4.62,9.37,6.79,12.84,8.76,26.58,15.63,41.68,19.58,17.32,4.53,34.68,4.67,52.06.39,15.06-3.7,28.79-10.23,41.2-19.54,1.01-.76,1.94-1.63,2.95-2.39,1.48-1.13,3.35-1.09,4.67.02,1.24,1.06,1.61,2.86.71,4.45-9.8,17.32-22.22,32.1-40.32,41.3-13.61,6.92-28.11,9.06-43.21,7.61-14.77-1.41-28.58-6.05-41.82-12.58-.57-.28-1.11-.74-2.16-.44,1.4,1.31,2.64,2.54,3.95,3.69,12.3,10.69,26.39,17.83,42.34,21.26,2.73.59,3.94,2.11,3.5,4.29-.44,2.19-2.19,3.17-4.91,2.66-8.4-1.59-16.38-4.45-24.02-8.26-16.31-8.12-29.42-19.8-39.1-35.27-1.64-2.62-1.59-3.89.28-5.99,1.67-.79,3.2-.63,4.73.48,8.93,6.42,18.57,11.58,28.78,15.63,6.14,2.44,12.38,4.66,18.95,5.69l.76.21c1.06.3,2.13.56,3.24.58.36.06.73.12,1.09.18,1.42.37,2.87.57,4.34.58l.75.09c5.3.63,10.59.66,15.89.01l.02.06Z"/>
      <path class="st1" d="M-11.28,213.2c-1.31-6.14-3.09-12.13-5.57-17.91-.66-1.53-1.81-2.41-3.5-2.36-1.6.05-2.72.89-3.23,2.44-3.61,10.86-9.38,20.58-15.83,29.93-8.48,12.29-8.27,25.63.55,36.66.69.86.35,1.36-.1,2.03-3.82,5.6-8.13,10.79-13.14,15.36-17.35,15.83-37.95,23.57-61.27,24.41-2.6.09-4.06,1.38-4.01,3.62.05,2.15,1.51,3.43,3.99,3.45,5.08.05,10.11-.49,15.1-1.4,27.71-5.09,49.87-18.84,65.78-42.28.92-1.36,2.02-2.28,3.45-3.03,5.16-2.7,9.43-6.46,12.71-11.29,5.02-7.41,6.72-15.75,6.73-25.71-.04-3.92-.59-8.94-1.64-13.91h-.02ZM-18.48,240.87c-2.18,7.18-6.57,12.62-13,16.47-1.06.64-1.61.49-2.34-.48-5.86-7.77-6.36-16.98-.93-25.48,4.96-7.76,10-15.47,14.01-23.78.05-.1.16-.17.47-.47,1.12,3.13,1.75,6.18,2.32,9.25,1.51,8.2,1.93,16.39-.54,24.5h0Z"/>
      <path class="st1" d="M-55.22,223.54c-1.95-.84-3.22.6-4.58,2.06-5.27,5.64-10.59,11.23-15.89,16.84-.29.31-.57.62-.89.9-1.53,1.36-3.7,1.34-5.05-.03-1.33-1.34-1.43-3.37-.03-4.88,4.05-4.38,8.17-8.7,12.26-13.04,2.36-2.5,4.77-4.95,7.06-7.5,1.56-1.74,3.2-2.39,5.6-1.73,4.34,1.2,8.86-.79,11.24-4.64,2.36-3.81,2.06-8.6-.76-11.98-2.96-3.55-7.58-4.82-11.75-3.22-4.15,1.59-6.93,5.74-6.73,10.17.04.95.33,1.89.54,2.83.54,2.3.14,3.49-1.86,4.75-12.64,7.99-25.29,15.96-37.94,23.93-9.28,5.85-18.57,11.69-27.84,17.56-1.18.75-2.36,1.23-3.74.72-1.37-.5-2.18-1.48-2.35-2.93-.2-1.64.61-2.78,1.92-3.61,4.69-2.96,9.39-5.9,14.08-8.86,16.37-10.32,32.74-20.64,49.13-30.93,1.02-.64,1.11-1.39,1.03-2.42-.44-6.38,1.85-11.6,6.92-15.47,6.18-4.72,14.53-4.7,20.91-.1,6.16,4.44,8.64,12.58,6.11,20.02-2.39,7.02-9.38,11.76-17.41,11.57h.02Z"/>
      <path class="st1" d="M-24.85,172.72c-6.31-14.22-15.72-26.03-27.85-35.7-.96-.76-1.3-1.48-1.2-2.72.5-6.1-1.89-10.92-7.18-13.93-5.26-2.99-10.61-2.67-15.7.76-1.44.97-2.49,2.36-3.93,3.83-.09-8.72-2.98-13.2-9.15-14.63-5.27-1.22-10.77,1.25-13.19,5.92-2.6,5.03-1.53,11.21,2.6,14.69,1.98,1.67,4.24,2.72,6.87,2.9,4.41.31,7.93-1.45,11.04-5.16-.13,2.02-.41,3.5-.29,4.95.5,5.97,3.38,10.45,8.99,12.71,5.62,2.26,10.9,1.29,15.44-2.82.94-.85,1.47-.78,2.38-.03,5.92,4.84,11.07,10.39,15.57,16.54,3.75,5.12,6.96,10.56,9.42,16.43.78,1.86,2.32,2.67,4.22,2.27,1.71-.36,2.5-1.57,2.67-3.23.1-1-.32-1.88-.71-2.77h0ZM-92.55,126.74c-2.66,0-4.82-2.13-4.84-4.78,0-2.59,2.2-4.8,4.84-4.81,2.58-.02,4.88,2.27,4.87,4.81-.02,2.65-2.18,4.77-4.86,4.78h0ZM-68.39,140.36c-3.96,0-7.32-3.42-7.31-7.42,0-4.12,3.37-7.45,7.5-7.43,3.97.01,7.34,3.42,7.34,7.42s-3.4,7.43-7.53,7.42h0Z"/>
      <path class="st1" d="M-114.66,119.35c-4.4-1.86-8.92-3.24-13.71-3.74-12.14-1.28-23.4,4.57-29.11,15.23-1.27,2.36-.83,4.21,1.48,5.51,5.17,2.92,10.65,4.8,16.67,4.85,1.26-.1,2.53-.12,3.78-.31,10.12-1.56,17.32-7.41,22.77-15.72,1.65-2.52.94-4.62-1.88-5.81h0ZM-121.91,125.53c-4.72,5.1-10.26,8.5-18.36,8.48-2.17.08-5.05-.73-7.91-1.75-1.16-.41-1.38-.85-.52-1.86,3.74-4.45,8.46-7.08,14.22-7.71,4.12-.45,8.16.16,12.11,1.39.98.3,1.19.67.46,1.46h0Z"/>
      <path class="st1" d="M-59.45,158.01c-4,.14-7.91.83-11.74,1.97-11.74,3.49-20.2,13.56-21.15,25.17-.47,5.77.25,6.56,6.05,6.55,18.62,0,29.23-12.65,31.2-29.09.39-3.29-1.09-4.72-4.37-4.6h0ZM-63.07,166.77c-2.91,10.01-9.37,16.67-20.73,17.73-1.11.22-1.37-.25-1.06-1.5,1.98-8.01,7.13-13.04,14.7-15.82,1.98-.72,4.01-1.29,6.12-1.53.95-.11,1.22.27.97,1.12h0Z"/>
      <path class="st1" d="M-85.68,154.52c-.94-2.02-2.11-3.92-3.38-5.75-6.79-9.79-17.45-13.48-28.48-9.86-3.24,1.06-4.07,2.73-2.94,5.93,3.66,10.47,12.36,16.64,23.49,16.69,2.96,0,5.89-.31,8.73-1.22,3.1-.99,3.95-2.87,2.58-5.78h0ZM-95.38,154.43h-1.8c-6.31-.04-11.21-2.64-14.61-8.02-.7-1.1-.84-1.59.73-1.78,6.02-.73,13.64,3.23,16.4,8.58.46.89.2,1.21-.71,1.22h0Z"/>
      <path class="st1" d="M-113.81,167.81c-6.99,0-12.48,5.42-12.46,12.31,0,6.74,5.56,12.31,12.32,12.35,6.79.04,12.37-5.45,12.39-12.21.02-7.05-5.29-12.45-12.25-12.45ZM-113.98,185.31c-2.86-.04-5.15-2.36-5.14-5.21,0-2.9,2.39-5.24,5.34-5.27,2.68-.03,5.15,2.52,5.14,5.27-.02,2.96-2.35,5.25-5.33,5.21h0Z"/>
      <path class="st1" d="M-196.49,171.19c-4.94,0-8.92,3.89-8.96,8.74-.04,5.01,3.73,8.95,8.62,8.99,5.14.05,8.99-3.69,9.02-8.75.03-4.96-3.86-8.99-8.69-8.98h0ZM-196.54,181.79c-1.02.03-1.75-.55-1.8-1.61-.05-1.08.67-1.59,1.57-1.79,1.15.07,1.85.62,1.89,1.65.04,1.04-.62,1.73-1.66,1.76h0Z"/>
      <path class="st1" d="M-45.75,166.42c-4.92.04-8.85,4.11-8.78,9.11.07,4.85,4.06,8.67,9.03,8.64,4.88-.04,8.68-3.99,8.65-8.98-.03-4.89-4.01-8.8-8.9-8.76h0ZM-45.62,177.04c-1.1-.17-1.79-.77-1.76-1.78s.7-1.64,1.77-1.62c1.08.03,1.69.7,1.69,1.71,0,1.06-.8,1.51-1.69,1.68h0Z"/>
    </g>
  </g>
  <g>
    <path class="st1" d="M259.67,220.51c-14.23-1.62-28.36-1.2-42.29,2.48-10.52,2.76-20.08,7.47-28.97,14.45-.79-1.93-.45-3.33-.33-4.69,1.34-15.12,1.26-30.19-1.73-45.13-9.5-47.38-37.44-79.7-81.21-98.95-5.48-2.4-9.03-.79-11.47,4.61-4.43,9.81-8.26,19.85-11,30.27-11.06,41.92-5.42,80.92,20.5,116.33.65.89,1.5,1.75,1.32,3.33-5.1-.41-10.19-.28-15.27.1-2.96.22-5.56,1.16-7.09,3.88-1.5,2.66-1.5,5.42.26,8,1.95,2.86,4.81,3.49,8.12,3.15,11.71-1.16,23.24-.3,33.36,6.13,8.95,5.68,17.3,12.28,25.9,18.51.14.1.1.45.16.87-10.84,3.35-21.95,4.93-33.27,4.69-31.37-.67-58.37-12.69-82.57-31.99-1.79-1.42-1.83-2.6-.79-4.53,7.49-13.72,18.45-23.35,33.05-28.95,5.18-1.97,7.13-6.19,5.28-10.64-1.62-3.86-6.01-5.28-10.82-3.45-20.85,7.98-35.36,22.53-44.11,42.92-2.44,5.68-1.69,8.45,3.05,12.46,14.19,11.94,29.56,22.03,46.88,28.87,31.04,12.28,62.51,13.95,94.14,2.76,6.58-2.35,12.65-2.58,19.37-1.75,18.19,2.25,35.55-.49,51.14-10.72,18.8-12.32,29.72-30.27,35.87-51.46,2.01-6.9-.37-10.76-7.47-11.59v.04ZM167.89,259.65c-4.06-10.74-7.78-20.52-11.47-30.31-2.76-7.29-5.75-14.52-8.14-21.93-1.71-5.32-6.42-6.98-10.5-5.42-4.12,1.56-5.56,5.87-3.63,11.02,6.33,16.89,12.69,33.78,19.06,50.67.3.81.55,1.64.81,2.4-.81.73-1.36.18-1.81-.14-21.64-15.02-39.26-33.56-50.18-57.86-10.56-23.51-11.9-47.93-6.62-72.9,1.93-9.14,4.87-18.01,8.16-26.76,1.02-2.72,2.27-3.21,4.77-1.83,37.92,20.93,60.82,52.09,65,95.8,1.79,18.82-.71,43.24-5.46,57.25l.02.02ZM249.4,237.36c-10.68,25.54-29.76,42.49-60.3,42.63-1.36-.12-3.78-.28-6.21-.53-4.61-.45-4.71-.53-2.94-4.99,8.47-21.48,24.54-33.68,46.86-38.11,6.8-1.36,13.7-1.69,20.63-1.58,1.95.04,2.9.34,1.95,2.58Z"/>
    <path class="st1" d="M214.72,399.1c.77-.12,1.56-.24,2.33-.35,14.8-1.4,28.87-5.4,42.25-11.84.51-.24,1.04-.47,1.56-.73,7.08-3.11,13.87-6.7,20-11.49.85-.14,1.46-.59,1.89-1.32,2.42-1.26,4.61-2.88,6.54-4.83h.02c9.34-6.82,17.56-14.82,24.93-23.71.18-.22.33-.43.51-.63.28-.34.57-.69.85-1.02l-.02.18c1.91-2.05,3.82-4.1,5.73-6.15-.32.2-.37.14-.22-.12.06.08.12.18.18.26-3.41-.39-5.66,1.93-8.26,3.45l.08-.04c-13.48,6.5-27.28,12.28-41.43,17.17-.63-.08-1.2-.04-1.62.53-1.28.08-2.52.3-3.63,1.01-12.63,3.27-25.32,6.15-38.33,7.73-35.51,4.32-70.24.67-104.29-10.07-27.29-8.63-52.56-21.44-76.39-37.19-.85-.57-1.73-1.08-2.54-1.71-2.03-1.56-3.49-2.19-4.43,1.2-.87,3.07-3.72,4.2-6.64,4.34-3.02.14-5.56-1.24-6.76-4.16-2.98-7.23-5.03-14.76-6.39-22.47-.55-3.09,1.04-5.52,3.72-7,2.82-1.56,5.68-1.3,8.3.61,6.62,4.81,13.13,9.79,19.9,14.43,27.28,18.6,56.44,33.21,88.53,41.58,36.77,9.62,73.65,9.91,110.56.83,31.99-7.86,61.15-21.74,87.5-41.48,2.15-1.62,4.12-3.45,6.27-5.08,3.15-2.38,7.13-2.33,9.91.04,2.64,2.25,3.43,6.07,1.52,9.44-20.81,36.79-47.2,68.19-85.63,87.72-28.91,14.68-59.69,19.23-91.78,16.16-31.37-3-60.7-12.85-88.82-26.7-1.2-.59-2.35-1.58-4.57-.95,2.98,2.8,5.6,5.4,8.4,7.82,26.13,22.7,56.05,37.88,89.93,45.15,5.81,1.24,8.36,4.47,7.43,9.1-.93,4.65-4.65,6.74-10.43,5.64-17.85-3.39-34.78-9.46-51.02-17.54-34.63-17.24-62.47-42.06-83.05-74.91-3.49-5.58-3.37-8.26.59-12.71,3.55-1.68,6.8-1.34,10.05,1.01,18.96,13.64,39.43,24.59,61.11,33.21,13.05,5.18,26.29,9.89,40.24,12.08.53.16,1.08.3,1.62.45,2.25.65,4.53,1.2,6.9,1.24.77.14,1.54.26,2.33.39,3.02.79,6.09,1.22,9.2,1.24.53.06,1.06.14,1.58.2,11.25,1.34,22.49,1.4,33.74.02h.04Z"/>
    <path class="st1" d="M440.72,251.14c-2.78-13.05-6.56-25.76-11.82-38.04-1.4-3.25-3.84-5.12-7.43-5.01-3.41.1-5.77,1.89-6.86,5.18-7.67,23.06-19.92,43.71-33.62,63.58-18.01,26.11-17.56,54.43,1.16,77.84,1.46,1.83.75,2.9-.22,4.32-8.12,11.88-17.26,22.92-27.91,32.62-36.83,33.62-80.58,50.06-130.13,51.85-5.52.2-8.61,2.94-8.51,7.69.1,4.57,3.19,7.27,8.47,7.33,10.78.1,21.48-1.04,32.06-2.98,58.85-10.82,105.91-40.03,139.71-89.79,1.95-2.88,4.28-4.85,7.31-6.44,10.96-5.73,20.02-13.72,26.98-23.98,10.66-15.75,14.27-33.46,14.29-54.61-.08-8.32-1.24-19-3.49-29.54v-.02ZM425.43,309.93c-4.63,15.23-13.95,26.8-27.61,34.98-2.27,1.36-3.41,1.02-4.97-1.02-12.46-16.5-13.52-36.06-1.97-54.12,10.54-16.48,21.23-32.85,29.76-50.51.1-.22.35-.35,1.01-.99,2.38,6.66,3.72,13.13,4.93,19.63,3.21,17.42,4.1,34.8-1.14,52.03h0Z"/>
    <path class="st1" d="M347.39,273.11c-4.14-1.79-6.84,1.28-9.74,4.36-11.19,11.96-22.49,23.85-33.74,35.75-.61.65-1.22,1.32-1.89,1.91-3.25,2.88-7.84,2.86-10.74-.06-2.84-2.86-3.03-7.15-.06-10.37,8.61-9.3,17.34-18.49,26.05-27.71,5.01-5.3,10.13-10.5,15-15.94,3.33-3.71,6.8-5.08,11.88-3.67,9.22,2.56,18.8-1.68,23.87-9.85,5.03-8.1,4.38-18.25-1.62-25.44-6.29-7.55-16.08-10.23-24.97-6.84-8.81,3.37-14.72,12.18-14.31,21.6.1,2.01.69,4.02,1.16,6.01,1.14,4.89.3,7.41-3.96,10.09-26.84,16.97-53.7,33.9-80.56,50.83-19.71,12.44-39.43,24.83-59.12,37.29-2.5,1.6-5.01,2.6-7.94,1.54-2.92-1.06-4.63-3.15-5.01-6.23-.41-3.47,1.28-5.89,4.08-7.67,9.97-6.29,19.94-12.53,29.92-18.8,34.76-21.91,69.53-43.85,104.33-65.69,2.15-1.36,2.35-2.96,2.19-5.14-.95-13.54,3.92-24.63,14.7-32.85,13.13-10.01,30.86-9.99,44.4-.22,13.09,9.44,18.35,26.72,12.99,42.53-5.06,14.92-19.9,24.97-36.97,24.58h.06Z"/>
    <path class="st1" d="M411.91,165.2c-13.4-30.19-33.38-55.28-59.16-75.81-2.03-1.62-2.76-3.15-2.54-5.77,1.06-12.97-4.02-23.2-15.25-29.58-11.17-6.35-22.55-5.68-33.35,1.62-3.05,2.07-5.28,5.03-8.36,8.12-.2-18.51-6.33-28.02-19.43-31.06-11.19-2.58-22.88,2.66-28,12.55-5.52,10.68-3.25,23.81,5.52,31.2,4.2,3.55,9.01,5.77,14.6,6.17,9.36.67,16.83-3.07,23.43-10.96-.28,4.3-.87,7.43-.61,10.5,1.06,12.67,7.17,22.19,19.1,26.98,11.94,4.79,23.16,2.74,32.79-5.99,1.99-1.81,3.11-1.66,5.06-.08,12.57,10.27,23.51,22.05,33.07,35.12,7.96,10.88,14.78,22.43,20,34.9,1.66,3.96,4.93,5.68,8.95,4.83,3.63-.77,5.3-3.33,5.68-6.86.22-2.11-.69-3.98-1.52-5.87h.02ZM268.11,67.53c-5.66,0-10.25-4.51-10.29-10.15-.04-5.5,4.69-10.19,10.27-10.23,5.48-.04,10.37,4.83,10.33,10.23-.04,5.64-4.63,10.15-10.33,10.15h.02ZM319.42,96.46c-8.4,0-15.55-7.27-15.53-15.75.04-8.75,7.17-15.81,15.94-15.79,8.43.04,15.59,7.27,15.59,15.77s-7.23,15.79-16,15.77Z"/>
    <path class="st1" d="M221.16,51.84c-9.34-3.94-18.96-6.88-29.13-7.94-25.78-2.72-49.68,9.72-61.82,32.34-2.7,5.01-1.75,8.95,3.15,11.71,10.98,6.21,22.6,10.19,35.39,10.31,2.68-.22,5.38-.24,8.04-.67,21.48-3.33,36.77-15.75,48.36-33.38,3.51-5.34,2.01-9.81-3.98-12.36h-.02ZM205.77,64.96c-10.03,10.82-21.8,18.05-39,18.01-4.61.18-10.74-1.56-16.79-3.71-2.46-.87-2.92-1.81-1.12-3.96,7.94-9.44,17.95-15.04,30.21-16.38,8.75-.95,17.32.35,25.72,2.94,2.09.65,2.52,1.44.99,3.09Z"/>
    <path class="st1" d="M338.4,133.94c-8.49.3-16.79,1.77-24.93,4.2-24.93,7.41-42.88,28.79-44.91,53.45-1.01,12.26.53,13.93,12.85,13.89,39.53,0,62.08-26.86,66.26-61.78.85-7-2.31-10.01-9.28-9.76h.02ZM330.72,152.56c-6.19,21.24-19.9,35.41-44.03,37.66-2.35.45-2.92-.53-2.25-3.19,4.2-17.01,15.16-27.71,31.22-33.58,4.2-1.54,8.51-2.74,12.99-3.25,2.03-.24,2.58.57,2.07,2.38v-.02Z"/>
    <path class="st1" d="M282.71,126.53c-2.01-4.3-4.47-8.32-7.17-12.22-14.41-20.77-37.05-28.62-60.48-20.95-6.88,2.25-8.63,5.79-6.25,12.59,7.78,22.23,26.25,35.34,49.88,35.45,6.31,0,12.49-.67,18.54-2.58,6.58-2.11,8.4-6.09,5.48-12.28v-.02ZM262.11,126.33h-3.82c-13.4-.08-23.81-5.6-31.04-17.05-1.48-2.35-1.79-3.39,1.56-3.78,12.77-1.54,28.97,6.86,34.82,18.23.99,1.89.41,2.56-1.52,2.6h0Z"/>
    <path class="st1" d="M222.98,154.75c-14.84,0-26.51,11.51-26.47,26.13.04,14.33,11.82,26.13,26.15,26.23,14.43.1,26.27-11.59,26.31-25.94.04-14.98-11.23-26.43-26.01-26.45l.02.02ZM222.6,191.92c-6.07-.08-10.94-5.01-10.92-11.08.02-6.15,5.06-11.13,11.33-11.19,5.68-.06,10.94,5.34,10.92,11.19-.04,6.29-5.01,11.13-11.33,11.06v.02Z"/>
    <path class="st1" d="M47.36,161.92c-10.5.02-18.94,8.26-19.02,18.54-.08,10.64,7.92,19,18.31,19.1,10.92.1,19.1-7.84,19.16-18.58.08-10.54-8.2-19.08-18.45-19.08v.02ZM47.24,184.43c-2.17.06-3.72-1.16-3.82-3.43-.1-2.31,1.44-3.37,3.33-3.8,2.44.14,3.92,1.3,4.02,3.51.1,2.21-1.3,3.67-3.53,3.72Z"/>
    <path class="st1" d="M367.51,151.79c-10.46.08-18.78,8.71-18.64,19.35.14,10.31,8.63,18.43,19.18,18.35,10.35-.08,18.45-8.47,18.37-19.08-.08-10.39-8.51-18.68-18.9-18.6v-.02ZM367.79,174.36c-2.35-.37-3.8-1.64-3.74-3.78.06-2.15,1.48-3.49,3.76-3.43s3.59,1.48,3.59,3.65-1.71,3.19-3.61,3.57h0Z"/>
  </g>
</svg>
